<svg xmlns="http://www.w3.org/2000/svg" xmlns:xlink="http://www.w3.org/1999/xlink" width="400" height="400" viewBox="0 0 400 400"><defs><radialGradient id="gradient-15" cx="10%" cy="20%" r="100%" fx="10%" fy="20%">       <stop offset="0%" stop-color="rgba(0, 95, 104, 1)"/>       <stop offset="90%" stop-color="rgba(15, 156, 168, 1)"/>     </radialGradient><linearGradient id="gradient-19"><stop stop-color="#905e25" offset="0"/><stop stop-color="#f5ec8b" offset="0.5"/><stop stop-color="#905e36" offset="1"/></linearGradient><linearGradient id="gradient-20"><stop stop-color="#616162" offset="0"/><stop stop-color="#e6e7e9" offset="0.5"/><stop stop-color="#616162" offset="1"/></linearGradient></defs>
<rect data-name="background" width="100%" height="100%" fill="#000000"/><g data-name="icon" fill="url(#gradient-20)" data="id:2014801" transform="translate(158.41905509929094,94.56153406288895) scale(0.5300068519714859)">
    <defs/><g><path class="fil0" d="M7 122c-8,20 -10,46 -2,81 1,-27 4,-54 2,-81z" style="fill: {{COLOR}};"/><path class="fil0" d="M56 70c-10,5 -19,12 -27,19 3,40 -9,73 -18,110 4,-7 8,-15 12,-22 16,-32 33,-63 33,-107z" style="fill: {{COLOR}};"/><path class="fil0" d="M114 36c-7,5 -14,9 -21,13 -6,60 -37,89 -68,134 40,-51 80,-74 89,-147z" style="fill: {{COLOR}};"/><path class="fil0" d="M157 60c-2,-21 -6,-42 -12,-60 -5,88 -40,112 -97,166 44,-34 84,-51 109,-106z" style="fill: {{COLOR}};"/><path class="fil0" d="M150 150c3,-11 6,-23 7,-36 -39,39 -94,49 -135,85 41,-25 86,-28 128,-49z" style="fill: {{COLOR}};"/><path class="fil0" d="M105 208c10,-5 18,-13 26,-21 -38,5 -73,5 -110,19 29,-4 55,-1 84,2z" style="fill: {{COLOR}};"/><path class="fil0" d="M9 213c25,6 46,8 64,5 -12,-5 -53,-10 -64,-5z" style="fill: {{COLOR}};"/></g>
    </g><g data-name="business_name" fill="url(#gradient-19)" data="id:221" transform="translate(69.26077597601451,211.66900308258562) scale(1.3009478693081462)"><path d="M10.6,17.4c-0.68,1.84-2.16,10.2-3.48,17.48l-0.16,0.76c3.72-0.28,7.8-0.32,11.12-0.12l1.16-6.04c0.92-4.96,1.56-7.88,1.92-9.6c0.32-1.76,1.64-2.64,1.56-1.92c0,0.68-0.36,2.12-1.64,8.32c-0.44,2.12-1.08,5.52-1.68,9.32c0.24,0,0.44,0.04,0.68,0.04c0.52,0.04,2.16,0.2,3.04,0.64c0.76,0.44-1.44,0.2-3.12,0.04c-0.24,0-0.48-0.04-0.72-0.04l0,0.12c-1.2,7.16-2.48,11.36-2.84,15.72l-0.12,1.12c0.4,1.48,0.56,2.2,0.48,2.76c0,0.52-0.68,1.16-1.16,1.04c-0.28-0.04-0.56,0-0.44-0.4c0.04-0.24,0.24-1.8,0.36-3.28l-0.12-0.44c-0.96-4.24-5.28-7.44-9.84-9.92c-0.68,3.88-1,6.12-0.72,7.04c0.36,1.68-0.88,1.2-0.88,0.08c-0.08-1.96,0.04-3.96,0.56-7.64c-2.16-1.12-4.36-2.08-6.2-2.92c-1.24-0.6-2.32-1.92,2.12-3c1.44-0.32,3.24-0.6,5.2-0.8c0-0.12,0.04-0.28,0.08-0.4l2.88-15.64c0.32-1.68,1.04-2.88,1.68-3.48c0.68-0.6,0.64,0.2,0.28,1.16z M17.96,36.24l0-0.08c-3.84-0.2-7.76,0.08-11.16,0.48l-1.08,5.56c4.4,2.4,8.4,5.48,10,9.08c0.4-3.92,1.24-8.92,2.24-15.04z M-1.2,39.04c1.88,0.76,3.92,1.6,5.88,2.6c0.2-1.36,0.48-2.92,0.8-4.8c-1.68,0.24-3.24,0.48-4.48,0.76c-3.48,0.8-2.6,1.32-2.2,1.44z M26.4,40.48c-2.08,0.16-3-1.6-2.16-3.44c0.8-1.84,2.4-2.56,3.24-2.4c0.76,0.12,1,0.76,0.68,1.68c-0.48,1.24-1.96,2.12-3.4,2.6c0.16,0.56,0.68,0.84,1.4,0.8c1.84-0.16,4.4-1.44,11.64-4.6c0.52-0.24,0.64,0.28,0.32,0.4c-6.08,2.68-9.52,4.8-11.72,4.96z M24.96,37.32c-0.2,0.44-0.28,0.8-0.28,1.12c1.16-0.4,2.56-1.52,2.88-2.4c0.12-0.36,0.08-0.72-0.2-0.8c-0.44-0.12-1.72,0.4-2.4,2.08z M42.16,40.2c2.8,0,10.92-3.76,13.36-5.08c0.2-0.12,1.04-0.08,0.36,0.36c-2.64,1.72-11.12,5.56-13.76,5.56c-1.96,0-2.52-1.16-2.52-2s0.16-1.24,0.08-1.32c-0.12-0.12-0.36-0.08-1.64,0.6c-1.16,0.68-2.44,1.2-2.84,1.2c-0.56,0-0.96-0.36-0.96-0.6c0-0.76,0.48-1.8,2-2.92c1.28-1,2.08-1.2,2.76-1.2c0.92,0,1.48,1.44,1.08,1.44s-0.52-0.8-0.96-0.8c-0.4,0-1.2,0.32-2.32,1.08c-1.04,0.68-1.84,1.84-1.84,2.16c0,0.08,0.04,0.12,0.16,0.12c0.36,0,1.04-0.28,2.16-0.84c1.52-0.72,2.52-1.28,3-1.28c0.16,0,0.52,0.08,0.52,0.36c0,0.32-0.4,1.04-0.4,1.96c0,0.68,0.72,1.2,1.76,1.2z M56.12,37.2c0.36,0,1.76-1.24,2.52-2.44c-0.12-0.16-0.16-0.32-0.16-0.52c0-0.28,0.44-0.92,0.84-0.92c0.24,0,0.36,0.16,0.32,0.44c-0.04,0.36-0.2,0.68-0.36,1c0.72,0.64,2.72,0.88,3.96,0.92c1.76,0.04,3.28-0.24,4.32-0.6c0.24-0.04,0.68,0.28,0.36,0.44c-0.16,0.08-1.48,0.84-3.96,0.8c-2.36,0-4.12-0.48-4.96-1.16l-0.48,0.68c-0.24,0.32-1.84,2.2-2.56,2.2c-0.64,0-0.84-1.2-0.76-1.88c0.04-0.56,0.36-1.2,0.88-1.2c0.32,0,0.12,0.32-0.04,1s-0.12,1.24,0.08,1.24z M67.96,40.48c-2.08,0.16-3-1.6-2.16-3.44c0.8-1.84,2.4-2.56,3.24-2.4c0.76,0.12,1,0.76,0.68,1.68c-0.48,1.24-1.96,2.12-3.4,2.6c0.16,0.56,0.68,0.84,1.4,0.8c1.84-0.16,4.4-1.44,11.64-4.6c0.52-0.24,0.64,0.28,0.32,0.4c-6.08,2.68-9.52,4.8-11.72,4.96z M66.52,37.32c-0.2,0.44-0.28,0.8-0.28,1.12c1.16-0.4,2.56-1.52,2.88-2.4c0.12-0.36,0.08-0.72-0.2-0.8c-0.44-0.12-1.72,0.4-2.4,2.08z M79.32,35.32c0.08-0.32,0.36-0.32,0.56-0.36c0.24,0,0.36,0.08,0.32,0.44c-0.08,0.76-0.6,2.16-0.68,2.48c-0.04,0.08,0,0.16,0.12,0.16s1.28-0.56,2.08-0.96c1.16-0.6,1.96-1.04,2.56-1.04s1.08,0.48,1.08,1.28c-0.08,1.12-0.04,1.8,0.32,1.84c0.72,0.16,3.32-0.64,5.32-1.48l6.16-2.56c0.36-0.16,0.56,0.4,0.12,0.6c-1.64,0.84-3.92,1.76-6.04,2.68c-2.08,0.88-4.8,1.76-6,1.52c-0.84-0.16-1.04-1-0.96-2.12c0.04-0.6,0-0.84-0.12-0.92c-0.2-0.12-0.64,0.04-1.4,0.44c-0.64,0.32-2.84,1.44-3.2,1.44c-0.24,0-0.96-0.28-0.96-0.6c0-0.2,0.52-1.56,0.72-2.84z M94.64,50c-0.52,0.04-0.92-1.48-0.68-4.48c0.48-7.08,1.64-13.2,2.92-18.76c1.96-8.64,2.96-10.8,3.6-10.8c0.36,0,0.44,0.96,0.32,1.32c-0.12,0.48-0.64,1.32-1.08,2.28c-0.08,0.2-1.16,4.16-1.92,7.72c-0.64,3-2.4,11.2-3.08,18.56c-0.32,3.68,0.32,4.12-0.08,4.16z M108.68,35.84c-0.68,0-1.64,1-3,2.48c-1.4,1.52-2.8,2.92-3.72,2.92c-0.56,0-1.04-0.52-0.8-1.44c0.28-1,0.64-2.28,0.92-3.12c0.32-1.04,0.12-1.48,0.52-1.56c0.4-0.04,0.56,0.28,0.56,0.4c0,0.32-0.12,0.64-0.48,1.56c-0.28,0.8-0.68,2-0.76,2.32c-0.16,0.68-0.12,0.92,0.16,0.92c0.48,0,1.88-1,3.12-2.4c2-2.16,2.68-3.12,3.64-3.12c1,0,1.2,1.72,1.24,2.96c3.12-1.84,6.08-2.88,6.84-2.88c0.6,0,0.76,0.68,0.2,0.68c-0.8,0-3.84,1.04-7.04,3.08c-0.08,3.64-1.44,9.28-3.28,12.56c-1.84,3.24-4.28,5.44-6.4,5.44c-1.08,0-2.52-0.72-2.52-2.76c0-2.96,2.36-7.44,7-12.16c1.32-1.36,2.88-2.52,4.44-3.48c-0.04-1.4-0.12-2.4-0.64-2.4z M106.08,50.64c1.88-3.28,3.16-8.8,3.24-11.52c-1.36,0.88-2.68,1.92-3.88,3.16c-4.84,4.88-6.76,9.44-6.76,11.72c0,1.16,0.48,1.88,1.4,1.88c1.48,0,3.96-1.64,6-5.24z  M142.28,35.4l-11.56,1.32l-0.72,2.24c-1.6,4.92-2.56,9.28-2.52,9.84c0.04,0.6,0.32,1.08,1,1.04c2.24-0.12,7.08-1.36,10.4-2.4c2.52-0.8,3.68-1.36,4.04-1.68c0.36-0.36,1.44,0.24,1.04,0.56c-0.4,0.36-2.64,1.44-5.28,2.2c-2.64,0.8-6.88,1.96-9.04,2.04c-1.48,0.08-1.88,0-2.04-0.2c-0.2-0.16-0.84-0.76-0.88-1.48s0.52-4.28,2.2-10.08c0.16-0.6,0.36-1.24,0.6-1.96c-1.24,0.16-2.12,0.24-2.24,0.24c-0.48,0.04-0.24-0.76,0.2-0.84c0.32-0.08,1.2-0.16,2.32-0.32c1.36-4.2,3.36-9.64,4.92-13.64c-3.2,0.8-5.68,1.68-6.2,1.92c-0.76,0.36-0.96-0.48-0.28-0.96c0.52-0.4,3.16-1.36,6.92-2.08c0.76-1.92,1.4-3.4,1.68-4c1-2.08,1.2-2.16,1.36-2.32c0.12-0.16,0.92-0.2,0.48,0.28c-0.4,0.52-0.6,1-0.64,1.48c-0.04,0.44-0.48,0.84-1.8,4.36c0.92-0.16,1.92-0.32,3-0.44c5.84-0.72,10.12-0.64,11.12-0.6s0.36,0.56-0.2,0.6c-1.76,0.08-5.44-0.12-10.72,0.76c-1.24,0.2-2.48,0.48-3.6,0.72l-0.08,0.24c-1.4,3.8-3.24,9.08-4.72,13.56c3.12-0.36,7.4-0.8,9.16-1.04c2.72-0.36,2.84-0.68,2.96-0.44c0.08,0.24-0.2,1-0.88,1.08z M148.96,37.2c0.36,0,1.76-1.24,2.52-2.44c-0.12-0.16-0.16-0.32-0.16-0.52c0-0.28,0.44-0.92,0.84-0.92c0.24,0,0.36,0.16,0.32,0.44c-0.04,0.36-0.2,0.68-0.36,1c0.72,0.64,2.72,0.88,3.96,0.92c1.76,0.04,3.28-0.24,4.32-0.6c0.24-0.04,0.68,0.28,0.36,0.44c-0.16,0.08-1.48,0.84-3.96,0.8c-2.36,0-4.12-0.48-4.96-1.16l-0.48,0.68c-0.24,0.32-1.84,2.2-2.56,2.2c-0.64,0-0.84-1.2-0.76-1.88c0.04-0.56,0.36-1.2,0.88-1.2c0.32,0,0.12,0.32-0.04,1s-0.12,1.24,0.08,1.24z M160.8,40.48c-2.08,0.16-3-1.6-2.16-3.44c0.8-1.84,2.4-2.56,3.24-2.4c0.76,0.12,1,0.76,0.68,1.68c-0.48,1.24-1.96,2.12-3.4,2.6c0.16,0.56,0.68,0.84,1.4,0.8c1.84-0.16,4.4-1.44,11.64-4.6c0.52-0.24,0.64,0.28,0.32,0.4c-6.08,2.68-9.52,4.8-11.72,4.96z M159.36,37.32c-0.2,0.44-0.28,0.8-0.28,1.12c1.16-0.4,2.56-1.52,2.88-2.4c0.12-0.36,0.08-0.72-0.2-0.8c-0.44-0.12-1.72,0.4-2.4,2.08z M172.16,35.32c0.08-0.32,0.36-0.32,0.56-0.36c0.24,0,0.36,0.08,0.32,0.44c-0.08,0.76-0.6,2.16-0.68,2.48c-0.04,0.08,0,0.16,0.12,0.16s1.28-0.56,2.08-0.96c1.16-0.6,1.96-1.04,2.56-1.04s1.08,0.48,1.08,1.28c-0.08,1.12-0.04,1.8,0.32,1.84c0.72,0.16,3.32-0.64,5.32-1.48l6.16-2.56c0.36-0.16,0.56,0.4,0.12,0.6c-1.64,0.84-3.92,1.76-6.04,2.68c-2.08,0.88-4.8,1.76-6,1.52c-0.84-0.16-1.04-1-0.96-2.12c0.04-0.6,0-0.84-0.12-0.92c-0.2-0.12-0.64,0.04-1.4,0.44c-0.64,0.32-2.84,1.44-3.2,1.44c-0.24,0-0.96-0.28-0.96-0.6c0-0.2,0.52-1.56,0.72-2.84z M188.28,50.36c-0.52,0.12-0.88-1.48-0.84-4.44c0.08-2.44,0.68-10.84,1.88-17.28c0.28-1.48,0.56-2.8,0.84-4c-7.8,0-8.52,0.04-8.68-0.56c-0.08-0.36,1.04-0.84,1.36-0.64c0.4,0.24,0.68,0.36,1.84,0.36l5.68,0.04c1.28-5.12,2.48-7.2,3.04-7.2c0.32,0,0.56,0.96,0.48,1.32c-0.12,0.48-0.28-0.2-0.72,0.76c-0.08,0.12-0.92,2.32-1.68,5.12c1.4,0,1.92,0.12,5.88,0.12c3.68,0,4.64-0.2,4.76,0.24c0.08,0.48-1.88,0.44-4.88,0.44l-6,0c-0.36,1.44-0.72,2.96-0.96,4.44c-0.36,1.96-0.96,5.44-1.48,9.64c-0.32,2.28-0.72,7.96-0.48,9.88c0.2,1.52,0.52,1.68-0.04,1.76z M198.64,29.96c-1.48,0.88-2.12,1.96-1.88,2.96c0.2,0.8,0.88,2.28,1.48,4.08c1.6-1.28,3.08-2.24,4.6-2.92c0.12-0.08,0.6-0.16,0.76-0.12c0.32,0.12-0.08,0.28-0.32,0.4c-1.32,0.52-3,1.8-4.8,3.4c0.48,1.6,0.88,3.36,0.88,5.2c0,4.24-3.56,6.8-5.88,6.8c-3.28,0-3.44-4.76,1.92-10.12c0.76-0.76,1.48-1.44,2.16-2.04c-0.52-1.56-1.16-3.04-1.44-4.2c-0.6-2.2,0.84-3.92,2.04-4.04c0.92-0.12,0.88,0.4,0.48,0.6z M198.64,42.44c0-1.32-0.36-2.72-0.8-4.08l-1.72,1.68c-4.84,4.88-4.76,9.04-3.04,9.04c2.56,0,5.56-2.96,5.56-6.64z"/></g><g data-name="slogan" fill="#c2c2c2" data="id:261" transform="translate(113.71704844624459,292.1130836999691) scale(0.33639457175887455)"><path d="M16.48,13.4l-4.96,10.28l0,10.64c0,0.88-0.64,1.28-1.28,1.28c-0.68,0-1.32-0.44-1.32-1.28l0-10.64l-5.08-10.24c-0.84-1.76,1.6-2.8,2.44-1.12l3.96,7.92l3.8-7.88c0.88-1.84,3.28-0.68,2.44,1.04z M25.12,28.52l0-9.92c0-4.8,2.48-7.36,7.28-7.36l1.04,0c4.76,0,7.28,2.56,7.28,7.36l0,9.92c0,4.4-2.92,7.28-7.28,7.28l-1.04,0c-4.44,0-7.28-2.92-7.28-7.28z M32.4,33.12l1.04,0c2.88,0,4.6-1.8,4.6-4.6l0-9.92c0-3.12-1.52-4.72-4.6-4.72l-1.04,0c-3.04,0-4.72,1.64-4.72,4.72l0,9.92c0,2.92,1.84,4.6,4.72,4.6z M50.12,28.52l0-15.72c0-0.84,0.68-1.28,1.32-1.28c0.68,0,1.32,0.44,1.32,1.28l0,15.72c0,2.88,1.96,4.6,4.68,4.6l1,0c2.8,0,4.72-1.96,4.72-4.6l0-15.72c0-0.84,0.64-1.28,1.32-1.28c0.64,0,1.32,0.44,1.32,1.28l0,15.72c0,4.12-2.92,7.28-7.36,7.28l-1,0c-4.44,0-7.32-3.08-7.32-7.28z M78.2,28.6l0,5.72c0,0.88-0.68,1.28-1.32,1.28c-0.68,0-1.32-0.4-1.32-1.28l0-21.48c0-0.8,0.44-1.32,1.32-1.32l5.4,0c1.52,0,6.32,0.44,6.32,5.84l0,5c0,3.04-1.12,4.96-3.68,5.8l2.72,5.48c0.56,1.08-0.28,1.96-1.16,1.96c-0.48,0-1.08-0.32-1.4-1l-2.92-6l-3.96,0z M85.96,22.36l0-5c0-0.96-0.36-3.16-3.68-3.16l-4.08,0l0,11.72l3.72,0c1.96,0,4.04-0.44,4.04-3.56z  M114.44,12.4l5.24,18.04l5.48-17.96c0.52-1.72,2.96-1.04,2.48,0.64l-6.4,21.36c-0.2,0.72-0.84,1.12-1.52,1.12s-1.4-0.4-1.6-1.12l-6.12-21.32c-0.52-1.8,2-2.32,2.44-0.76z M136.36,34.36l0-21.56c0-0.84,0.64-1.28,1.28-1.28s1.32,0.44,1.32,1.28l0,21.56c0,1.72-2.6,1.72-2.6,0z M148.4,32.16c-0.88-1.64,1.36-2.84,2.4-1.2c0.52,0.84,2.08,2.28,4.56,2.28c1.04,0,3.64-0.76,4-3.72c0.24-1.8-1.48-3.56-4.44-5.04c-4.16-1.96-7.32-3.68-7.32-7.12c0-4.08,3.44-6,7.12-6c3.32,0,5.16,2.04,5.8,3.08c0.92,1.48-1.08,2.92-2.2,1.48c-0.56-0.72-1.64-1.92-3.6-1.92c-2.2,0-4.48,1.04-4.48,3.36c0,1.84,2.04,2.88,5.08,4.32c3.56,1.76,7.28,3.48,6.72,8.16c-0.44,3.68-3.24,6.04-6.68,6.04c-2.6,0-5.8-1.4-6.96-3.72z M170.96,34.36l0-21.56c0-0.84,0.64-1.28,1.28-1.28s1.32,0.44,1.32,1.28l0,21.56c0,1.72-2.6,1.72-2.6,0z M183.16,28.52l0-9.92c0-4.8,2.48-7.36,7.28-7.36l1.04,0c4.76,0,7.28,2.56,7.28,7.36l0,9.92c0,4.4-2.92,7.28-7.28,7.28l-1.04,0c-4.44,0-7.28-2.92-7.28-7.28z M190.44,33.12l1.04,0c2.88,0,4.6-1.8,4.6-4.6l0-9.92c0-3.12-1.52-4.72-4.6-4.72l-1.04,0c-3.04,0-4.72,1.64-4.72,4.72l0,9.92c0,2.92,1.84,4.6,4.72,4.6z M221.92,12.8l0,21.52c0,0.84-0.64,1.28-1.28,1.28c-0.48,0-1.12-0.36-1.4-0.88c-3-5.88-5.24-10.4-8.24-16.32l0,15.92c0,0.84-0.64,1.28-1.32,1.28c-0.64,0-1.32-0.44-1.32-1.28l0-21.52c0-1.4,2-1.48,2.44-0.64l8.44,16.68l0-16.04c0-0.84,0.64-1.28,1.32-1.28s1.36,0.44,1.36,1.28z M233.56,38.8c-0.8,1.56-2.68,0.64-2.08-0.8c0.28-0.68,0.88-1.4,0.96-2.4c-1.4,0.2-2-1.08-2-2.08c0-1.12,0.92-2.16,2.28-2.16c1.48,0,2.2,1.12,2.2,2.36c0,1.68-0.68,3.8-1.36,5.08z  M257.68,28.52l0-9.92c0-4.8,2.48-7.36,7.28-7.36l1.04,0c4.76,0,7.28,2.56,7.28,7.36l0,9.92c0,4.4-2.92,7.28-7.28,7.28l-1.04,0c-4.44,0-7.28-2.92-7.28-7.28z M264.96,33.12l1.04,0c2.88,0,4.6-1.8,4.6-4.6l0-9.92c0-3.12-1.52-4.72-4.6-4.72l-1.04,0c-3.04,0-4.72,1.64-4.72,4.72l0,9.92c0,2.92,1.84,4.6,4.72,4.6z M282.68,28.52l0-15.72c0-0.84,0.68-1.28,1.32-1.28c0.68,0,1.32,0.44,1.32,1.28l0,15.72c0,2.88,1.96,4.6,4.68,4.6l1,0c2.8,0,4.72-1.96,4.72-4.6l0-15.72c0-0.84,0.64-1.28,1.32-1.28c0.64,0,1.32,0.44,1.32,1.28l0,15.72c0,4.12-2.92,7.28-7.36,7.28l-1,0c-4.44,0-7.32-3.08-7.32-7.28z M310.76,28.6l0,5.72c0,0.88-0.68,1.28-1.32,1.28c-0.68,0-1.32-0.4-1.32-1.28l0-21.48c0-0.8,0.44-1.32,1.32-1.32l5.4,0c1.52,0,6.32,0.44,6.32,5.84l0,5c0,3.04-1.12,4.96-3.68,5.8l2.72,5.48c0.56,1.08-0.28,1.96-1.16,1.96c-0.48,0-1.08-0.32-1.4-1l-2.92-6l-3.96,0z M318.52,22.36l0-5c0-0.96-0.36-3.16-3.68-3.16l-4.08,0l0,11.72l3.72,0c1.96,0,4.04-0.44,4.04-3.56z  M353.12,11.44c3.64,0,7.52,1.4,7.52,5.52c0,0.96-0.64,1.4-1.32,1.4s-1.4-0.48-1.4-1.4c0-0.32-0.2-2.92-4.8-2.92c-3.64,0-5.24,1.44-5.24,4.88l0,9.64c0,3.48,1.96,4.56,5.24,4.56c3.32,0,5.16-1.36,5.16-4.6c0-0.92,0.68-1.36,1.32-1.36c0.68,0,1.32,0.44,1.32,1.36c0,5.4-3,7.2-7.8,7.2c-5.2,0-7.84-1.92-7.84-7.16l0-9.64c0-5.68,2.84-7.48,7.84-7.48z M373.08,28.6l0,5.72c0,0.88-0.68,1.28-1.32,1.28c-0.68,0-1.32-0.4-1.32-1.28l0-21.48c0-0.8,0.44-1.32,1.32-1.32l5.4,0c1.52,0,6.32,0.44,6.32,5.84l0,5c0,3.04-1.12,4.96-3.68,5.8l2.72,5.48c0.56,1.08-0.28,1.96-1.16,1.96c-0.48,0-1.08-0.32-1.4-1l-2.92-6l-3.96,0z M380.84,22.36l0-5c0-0.96-0.36-3.16-3.68-3.16l-4.08,0l0,11.72l3.72,0c1.96,0,4.04-0.44,4.04-3.56z M393.12,34.2l0-21.28c0-0.92,0.72-1.4,1.4-1.4l9.2,0c0.88,0,1.32,0.64,1.32,1.32s-0.44,1.36-1.32,1.36l-7.92,0l0,7.76l6.28,0c0.92,0,1.36,0.64,1.36,1.32s-0.48,1.4-1.36,1.4l-6.28,0l0,8.28l7.92,0c0.84,0,1.28,0.68,1.28,1.32c0,0.68-0.44,1.32-1.28,1.32l-9.2,0c-0.68,0-1.4-0.24-1.4-1.4z M425.96,34.52l-1.56-5.08l-7.44,0l-1.48,5c-0.52,1.72-3.16,1.2-2.6-0.56c2.08-7,4.12-14.12,6.16-21.2c0.24-0.76,0.88-1.16,1.52-1.16c0.6,0,1.24,0.4,1.48,1.16l6.36,21.2c0.44,1.52-1.92,2.36-2.44,0.64z M420.64,16.92l-2.88,9.84l5.88,0c-1-3.36-1.92-6.24-3-9.84z M436.56,11.52l12.08,0c0.84,0,1.24,0.68,1.24,1.36s-0.4,1.32-1.24,1.32l-4.56,0l0,20.12c0,0.84-0.68,1.28-1.36,1.28s-1.32-0.44-1.32-1.28l0-20.12l-4.84,0c-0.84,0-1.24-0.64-1.24-1.32s0.4-1.36,1.24-1.36z M458.36,34.36l0-21.56c0-0.84,0.64-1.28,1.28-1.28s1.32,0.44,1.32,1.28l0,21.56c0,1.72-2.6,1.72-2.6,0z M470.56,28.52l0-9.92c0-4.8,2.48-7.36,7.28-7.36l1.04,0c4.76,0,7.28,2.56,7.28,7.36l0,9.92c0,4.4-2.92,7.28-7.28,7.28l-1.04,0c-4.44,0-7.28-2.92-7.28-7.28z M477.84,33.12l1.04,0c2.88,0,4.6-1.8,4.6-4.6l0-9.92c0-3.12-1.52-4.72-4.6-4.72l-1.04,0c-3.04,0-4.72,1.64-4.72,4.72l0,9.92c0,2.92,1.84,4.6,4.72,4.6z M509.32,12.8l0,21.52c0,0.84-0.64,1.28-1.28,1.28c-0.48,0-1.12-0.36-1.4-0.88c-3-5.88-5.24-10.4-8.24-16.32l0,15.92c0,0.84-0.64,1.28-1.32,1.28c-0.64,0-1.32-0.44-1.32-1.28l0-21.52c0-1.4,2-1.48,2.44-0.64l8.44,16.68l0-16.04c0-0.84,0.64-1.28,1.32-1.28s1.36,0.44,1.36,1.28z"/></g></svg>